<?xml version="1.0" standalone="no"?><!DOCTYPE svg PUBLIC "-//W3C//DTD SVG 1.1//EN" "http://www.w3.org/Graphics/SVG/1.1/DTD/svg11.dtd"><svg t="1699690263422" class="icon" viewBox="0 0 1024 1024" version="1.1" xmlns="http://www.w3.org/2000/svg" p-id="4067" xmlns:xlink="http://www.w3.org/1999/xlink" width="200" height="200"><path d="M511.45728 21.764096C240.707584 21.764096 21.221376 241.250304 21.221376 512s219.486208 490.235904 490.235904 490.235904S1001.695232 782.749696 1001.695232 512 782.209024 21.764096 511.45728 21.764096zM535.701504 761.575424h-54.902784v-58.472448h54.902784V761.575424zM647.653376 447.823872c-8.087552 14.739456-25.667584 34.705408-52.764672 59.897856-29.483008 28.055552-47.54432 48.734208-54.196224 62.038016-6.664192 13.314048-9.984 35.42016-9.984 66.316288h-49.199104c0.948224-28.043264 5.459968-51.697664 13.54752-70.95296 8.075264-19.2512 25.778176-42.893312 53.123072-70.950912 27.332608-28.043264 44.443648-47.888384 51.339264-59.541504 6.887424-11.64288 10.340352-26.259456 10.340352-43.853824 0-26.617856-8.679424-48.009216-26.028032-64.176128-17.3568-16.154624-40.767488-24.244224-70.234112-24.244224-63.707136 0-98.404352 37.558272-104.108032 112.666624h-46.348288c0.946176-28.991488 4.634624-51.699712 11.051008-68.098048 6.418432-16.400384 17.225728-31.37536 32.444416-44.924928 15.208448-13.54752 32.200704-23.53152 50.98496-29.949952 18.771968-6.416384 38.148096-9.6256 58.114048-9.6256 42.303488 0 76.888064 12.01152 103.75168 36.009984 26.851328 24.010752 40.288256 56.221696 40.288256 96.622592C659.777536 415.500288 655.732736 433.094656 647.653376 447.823872z" fill="#515151" p-id="4068"></path></svg>